#!OML:ASF E:\emotionWalksFemale\Project 1\Capture day 1\Session 1\Female1.ASF
:FULLY-SPECIFIED
:DEGREES
1111
root 8.44876 15.504 -14.6815 177.591 -1.51297 -178.084
lowerback 6.65301 1.53994 -8.56775
upperback 1.15793 1.28042 -0.816589
thorax -2.70819 0.650851 3.84667
lowerneck -2.14513 -1.6839 -7.18243
upperneck 33.6139 -18.4464 21.4512
head 15.0673 -9.82935 7.04372
rclavicle 2.73329e-015 6.67916e-014
rhumerus -38.4779 -8.05029 -77.8999
rradius 28.879
rwrist 20.9079
rhand -6.08285 -47.9612
rfingers 7.12502
rthumb 19.7527 -76.9776
lclavicle 2.73329e-015 6.67916e-014
lhumerus -32.3048 2.18819 81.385
lradius 34.6275
lwrist -12.2949
lhand -10.0584 -35.5491
lfingers 7.12502
lthumb 15.9274 -6.184
rfemur -27.7203 2.67915 24.6137
rtibia 31.8221
rfoot -14.5157 -19.7339
rtoes -18.2065
lfemur 3.08949 -13.2003 -28.1551
ltibia 23.8163
lfoot -26.0185 4.18922
ltoes -26.9489
1112
root 8.45796 15.4946 -14.7516 177.599 -1.66493 -178.036
lowerback 6.6601 1.52698 -8.64532
upperback 1.04555 1.25209 -0.857444
thorax -2.82673 0.646449 3.84864
lowerneck -1.96061 -1.66585 -7.43181
upperneck 33.4331 -18.47 21.7677
head 15.0146 -9.8804 7.23109
rclavicle 6.31141e-015 -2.06736e-014
rhumerus -38.7148 -7.9768 -77.9734
rradius 28.8879
rwrist 20.7571
rhand -6.53648 -47.711
rfingers 7.12502
rthumb 19.3166 -76.7716
lclavicle 6.31141e-015 -2.06736e-014
lhumerus -32.6056 2.55194 81.1679
lradius 34.0894
lwrist -12.9904
lhand -9.65459 -35.1627
lfingers 7.12502
lthumb 16.3162 -5.82915
rfemur -27.4853 3.80603 24.386
rtibia 30.298
rfoot -15.1097 -21.1346
rtoes -16.0162
lfemur 3.50019 -13.0553 -28.0451
ltibia 23.5407
lfoot -26.1135 4.05723
ltoes -28.1753
1113
root 8.46417 15.4933 -14.8262 177.569 -1.8127 -177.994
lowerback 6.64565 1.51904 -8.6751
upperback 0.982592 1.2349 -0.922299
thorax -2.88159 0.641722 3.79871
lowerneck -1.88357 -1.68608 -7.45441
upperneck 33.3051 -18.4344 21.8423
head 14.937 -9.86517 7.27177
rclavicle -7.30534e-015 -4.77083e-015
rhumerus -38.8907 -7.85376 -78.0964
rradius 28.9851
rwrist 20.4851
rhand -6.82344 -47.5211
rfingers 7.12502
rthumb 19.0406 -76.6091
lclavicle -7.30534e-015 -4.77083e-015
lhumerus -32.7453 3.03396 80.8919
lradius 33.4138
lwrist -13.8702
lhand -9.22769 -34.7916
lfingers 7.12502
lthumb 16.7273 -5.49228
rfemur -27.2004 5.07558 24.0683
rtibia 28.8297
rfoot -15.63 -22.6914
rtoes -14.0531
lfemur 3.90399 -12.9486 -27.9679
ltibia 23.3352
lfoot -26.3757 3.92805
ltoes -29.1571
1114
root 8.47263 15.4932 -14.9093 177.49 -2.04531 -178.042
lowerback 6.50393 1.46209 -8.86373
upperback 1.00912 1.15605 -0.98023
thorax -2.76701 0.596836 3.85378
lowerneck -2.04191 -1.6582 -7.22051
upperneck 33.6228 -18.3117 21.4226
head 15.0119 -9.78388 7.06697
rclavicle -8.44835e-015 1.74931e-014
rhumerus -39.0183 -7.84465 -78.1594
rradius 29.185
rwrist 20.5485
rhand -6.53785 -47.506
rfingers 7.12502
rthumb 19.3152 -76.5668
lclavicle -8.44835e-015 1.74931e-014
lhumerus -32.7776 3.61746 80.6168
lradius 32.7081
lwrist -14.716
lhand -8.86372 -34.69
lfingers 7.12502
lthumb 17.0776 -5.42057
rfemur -26.8525 6.3884 23.6073
rtibia 27.4745
rfoot -16.3984 -24.2112
rtoes -12.5485
lfemur 4.40106 -12.8861 -28.0107
ltibia 23.095
lfoot -26.4371 3.62486
ltoes -29.1839
1115
root 8.47991 15.4863 -14.9879 177.491 -2.35742 -178.209
lowerback 6.3863 1.39271 -9.10603
upperback 0.995482 1.04966 -1.08396
thorax -2.70419 0.540976 3.89234
lowerneck -2.19249 -1.66534 -7.42282
upperneck 33.6743 -18.3672 21.5517
head 15.1293 -9.81937 7.15345
rclavicle -9.69075e-015 0
rhumerus -39.2388 -7.93044 -78.185
rradius 29.4006
rwrist 20.716
rhand -5.93561 -47.7445
rfingers 7.12502
rthumb 19.8943 -76.7462
lclavicle -9.69075e-015 0
lhumerus -32.7491 4.1512 80.3423
lradius 31.9855
lwrist -15.7383
lhand -8.32905 -34.3054
lfingers 7.12502
lthumb 17.5922 -5.08129
rfemur -26.6233 7.54242 23.0161
rtibia 26.1834
rfoot -17.4981 -25.6375
rtoes -11.1619
lfemur 4.84837 -12.8612 -28.1755
ltibia 22.8541
lfoot -26.3443 3.22848
ltoes -29.0297
1116
root 8.48554 15.4774 -15.0597 177.524 -2.65192 -178.302
lowerback 6.2235 1.38588 -9.17144
upperback 1.0119 1.04457 -1.21423
thorax -2.59431 0.530334 3.79573
lowerneck -2.0921 -1.72791 -7.53394
upperneck 33.4385 -18.3788 21.7467
head 15.0315 -9.82321 7.25525
rclavicle 4.47266e-016 3.97569e-014
rhumerus -39.3438 -8.04829 -78.2252
rradius 29.4096
rwrist 20.6318
rhand -5.83286 -47.755
rfingers 7.12502
rthumb 19.993 -76.7464
lclavicle 4.47266e-016 3.97569e-014
lhumerus -32.6489 4.35073 80.1421
lradius 31.4098
lwrist -16.61
lhand -7.51426 -33.6299
lfingers 7.12502
lthumb 18.3762 -4.47789
rfemur -26.4755 8.71443 22.5008
rtibia 24.9339
rfoot -18.7795 -27.1192
rtoes -9.03583
lfemur 5.22815 -12.8687 -28.2455
ltibia 22.6797
lfoot -26.3694 2.8581
ltoes -29.0222
